# Blender v2.90.1 OBJ File: 'room - Copy.blend'
# www.blender.org
mtllib room.mtl
o room_Cube.002
v -6.460766 0.000000 10.337226
v -6.460766 9.240167 10.337226
v -6.460766 0.000000 -10.337226
v -6.460766 9.240167 -10.337226
v 6.460766 0.000000 10.337226
v 6.460766 9.240167 10.337226
v 6.460766 0.000000 -10.337226
v 6.460766 9.240167 -10.337226
v -6.460766 0.462008 10.337226
v -6.460766 0.462008 -10.337226
v 6.460766 0.462008 -10.337226
v 6.460766 0.462008 10.337226
v -6.460766 0.000000 -10.233853
v -6.460766 9.240167 -10.233853
v -6.460766 0.462008 -10.233853
v -6.460766 0.000000 10.234370
v -6.460766 9.240167 10.234370
v -6.460766 0.462008 10.234370
v 6.460766 0.000000 -10.233853
v 6.460766 0.462008 -10.233853
v 6.331551 0.462008 -10.337226
v 6.331551 0.000000 -10.337226
v 6.331551 0.000000 10.337226
v 6.331551 0.462008 10.337226
v 6.460766 0.462008 10.233853
v 6.460766 0.000000 10.233853
v -6.460766 0.000000 10.233853
v -6.460766 0.462008 10.233853
v -6.331551 0.462008 10.234370
v -6.331551 0.462008 -10.233853
v -6.331551 0.000000 -10.233853
v -6.331551 0.000000 10.234370
v -6.460766 6.735664 10.337226
v -6.460766 6.735664 -10.337226
v -6.460766 6.735664 -10.233853
v -6.460766 6.735664 10.234370
v -6.460766 6.389873 -10.337226
v -6.460766 6.389873 -10.233853
v -6.460766 6.389873 10.234370
v -6.460766 6.389873 10.337226
v -6.460766 0.000000 2.400171
v -6.331551 0.462008 2.400172
v -6.331551 0.000000 2.400171
v -6.460766 6.735664 2.400171
v -6.460766 6.389873 2.400171
v -6.460766 0.462008 -1.985877
v -6.331551 0.462008 -1.985877
v -6.460766 0.000000 -1.985877
v -6.331551 0.000000 -1.985877
v -6.460766 0.000000 -1.597240
v -6.331551 0.000000 -1.597240
v -6.460766 0.462008 -1.597239
v -6.460766 6.735664 -1.597239
v -6.460766 6.389873 -1.597239
v -6.460766 0.000000 2.011534
v -6.331551 0.000000 2.011534
v -6.460766 0.462008 2.011534
v -6.460766 6.735664 2.011534
v -6.460766 6.389873 2.011534
v -6.460766 0.462008 2.400172
v -6.460766 6.735664 -1.985877
v -6.460766 6.389873 -1.985877
v -6.331551 6.389873 2.400171
v -6.331551 6.735664 2.400171
v -6.331551 6.735664 -1.597239
v -6.331551 6.735664 -1.985877
v -6.331551 6.389873 -1.597239
v -6.331551 6.389873 -1.985877
v -6.331551 6.735664 2.011534
v -6.331551 6.389873 2.011534
v -6.331551 0.462008 2.011534
v -6.331551 0.462008 -1.597239
vt 0.113251 0.831588
vt 0.158415 0.831588
vt 0.158415 0.833254
vt 0.113251 0.833254
vt 0.000119 0.833254
vt 0.107016 0.833254
vt 0.158415 0.999881
vt 0.000119 0.999881
vt 0.000120 0.000119
vt 0.158416 0.000119
vt 0.158415 0.333373
vt 0.000119 0.333373
vt 0.158415 0.500001
vt 0.113251 0.500000
vt 0.107016 0.500000
vt 0.000119 0.500000
vt 0.367891 1.003058
vt 0.201264 1.003058
vt 0.201264 0.669804
vt 0.367891 0.669804
vt 0.367891 0.671462
vt 0.367891 0.797742
vt 0.367891 0.804007
vt 0.367891 0.862177
vt 0.367891 0.868441
vt 0.367891 1.001392
vt 0.622679 1.003776
vt 0.456052 1.003776
vt 0.456052 1.002110
vt 0.456052 0.672180
vt 0.456052 0.670522
vt 0.622679 0.670522
vt 0.395851 0.042175
vt 0.395851 0.208807
vt 0.394185 0.208807
vt 0.394185 0.042175
vt 0.575864 0.153883
vt 0.533157 0.022443
vt 0.534804 0.021908
vt 0.577075 0.154497
vt 0.113251 0.501658
vt 0.158415 0.501658
vt 0.113251 0.698638
vt 0.113251 0.692374
vt 0.113251 0.634203
vt 0.113251 0.627939
vt 0.385854 0.042175
vt 0.385853 0.208807
vt 0.384188 0.208807
vt 0.384187 0.042175
vt 0.599737 0.351961
vt 0.591406 0.351961
vt 0.591405 0.018722
vt 0.599736 0.018722
vt 0.601403 0.018722
vt 0.601403 0.351961
vt 0.589739 0.351961
vt 0.589739 0.018722
vt 0.397756 0.042175
vt 0.406087 0.042175
vt 0.406087 0.208807
vt 0.397755 0.208807
vt 0.407753 0.042175
vt 0.407753 0.208807
vt 0.396089 0.208807
vt 0.396089 0.042175
vt 0.585477 0.151629
vt 0.543099 0.019253
vt 0.582632 0.294700
vt 0.589500 0.396840
vt 0.588153 0.396931
vt 0.581276 0.294751
vt 0.107016 0.501658
vt 0.107016 0.698638
vt 0.107016 0.831588
vt 0.000119 0.831588
vt 0.000119 0.698638
vt 0.000119 0.501658
vt 0.107016 0.627939
vt 0.000119 0.627939
vt 0.582599 0.289614
vt 0.581246 0.289623
vt 0.581412 0.397384
vt 0.574397 0.295082
vt 0.580071 0.397468
vt 0.573699 0.295871
vt 0.544758 0.018722
vt 0.587126 0.151046
vt 0.587875 0.157790
vt 0.579674 0.160993
vt 0.589500 0.157158
vt 0.574416 0.289655
vt 0.407991 0.042175
vt 0.466160 0.042175
vt 0.466160 0.043841
vt 0.407991 0.043841
vt 0.469920 0.287508
vt 0.454941 0.212860
vt 0.458032 0.212561
vt 0.471804 0.286982
vt 0.479049 0.293629
vt 0.479069 0.292020
vt 0.580375 0.162680
vt 0.469258 0.211342
vt 0.466899 0.210718
vt 0.455769 0.204138
vt 0.457035 0.205065
vt 0.463499 0.201506
vt 0.464245 0.203414
vt 0.479009 0.285952
vt 0.473219 0.292756
vt 0.472544 0.293749
vt 0.480102 0.285039
vt 0.588527 0.159420
vt 0.574438 0.288236
vt 0.581251 0.288260
vn -1.0000 0.0000 0.0000
vn 0.0000 0.0000 -1.0000
vn 1.0000 0.0000 0.0000
vn 0.0000 0.0000 1.0000
vn 0.0000 -1.0000 0.0000
vn 0.0000 1.0000 0.0000
usemtl Material.001
s off
f 35/1/1 14/2/1 4/3/1 34/4/1
f 10/5/2 37/6/2 34/4/2 4/3/2 8/7/2 11/8/2
f 11/9/3 8/10/3 6/11/3 12/12/3
f 12/12/4 6/11/4 2/13/4 33/14/4 40/15/4 9/16/4
f 3/17/5 7/18/5 5/19/5 1/20/5 16/21/5 41/22/5 55/23/5 50/24/5 48/25/5 13/26/5
f 8/27/6 4/28/6 14/29/6 17/30/6 2/31/6 6/32/6
f 10/33/5 11/34/5 20/35/5 15/36/5
f 46/37/5 15/38/5 30/39/5 47/40/5
f 36/41/1 17/42/1 14/2/1 35/1/1 61/43/1 53/44/1 58/45/1 44/46/1
f 33/14/1 2/13/1 17/42/1 36/41/1
f 13/47/2 15/36/2 20/35/2 19/48/2
f 7/49/6 3/50/6 13/47/6 19/48/6
f 22/51/3 21/52/3 24/53/3 23/54/3
f 5/55/6 7/56/6 22/51/6 23/54/6
f 11/57/5 12/58/5 24/53/5 21/52/5
f 26/59/4 25/60/4 28/61/4 27/62/4
f 12/63/5 9/64/5 28/61/5 25/60/5
f 1/65/6 5/66/6 26/59/6 27/62/6
f 49/67/1 47/40/1 30/39/1 31/68/1
f 41/69/6 16/70/6 32/71/6 43/72/6
f 40/15/1 33/14/1 36/41/1 39/73/1
f 62/74/1 61/43/1 35/1/1 38/75/1
f 38/75/1 35/1/1 34/4/1 37/6/1
f 15/76/1 38/75/1 37/6/1 10/5/1
f 46/77/1 62/74/1 38/75/1 15/76/1
f 9/16/1 40/15/1 39/73/1 18/78/1
f 18/78/1 39/73/1 45/79/1 60/80/1
f 39/73/1 36/41/1 44/46/1 45/79/1
f 55/81/6 41/69/6 43/72/6 56/82/6
f 32/71/1 29/83/1 42/84/1 43/72/1
f 18/85/5 60/86/5 42/84/5 29/83/5
f 13/87/6 48/88/6 49/67/6 31/68/6
f 51/89/1 72/90/1 47/40/1 49/67/1
f 48/88/6 50/91/6 51/89/6 49/67/6
f 56/82/1 43/72/1 42/84/1 71/92/1
f 50/93/6 55/94/6 56/95/6 51/96/6
f 58/97/5 53/98/5 65/99/5 69/100/5
f 60/86/2 45/101/2 63/102/2 42/84/2
f 52/103/2 54/104/2 67/105/2 72/90/2
f 53/98/5 61/106/5 66/107/5 65/99/5
f 61/106/4 62/108/4 68/109/4 66/107/4
f 72/90/1 67/105/1 68/109/1 47/40/1
f 67/105/1 65/99/1 66/107/1 68/109/1
f 70/110/1 69/100/1 65/99/1 67/105/1
f 42/84/1 63/102/1 70/110/1 71/92/1
f 63/102/1 64/111/1 69/100/1 70/110/1
f 45/101/2 44/112/2 64/111/2 63/102/2
f 54/104/6 59/113/6 70/110/6 67/105/6
f 62/108/4 46/37/4 47/40/4 68/109/4
f 44/112/5 58/97/5 69/100/5 64/111/5
f 52/103/2 72/90/2 51/89/2 50/114/2
f 70/110/4 59/113/4 57/115/4 55/116/4 56/82/4 71/92/4
