# Blender v2.90.1 OBJ File: 'room_final.blend'
# www.blender.org
mtllib room.mtl
o room_Cube.005
v -5.699705 0.000000 9.120744
v -5.699705 7.992073 9.120744
v -5.700798 0.000000 -9.120061
v -5.700798 7.992073 -9.120061
v 5.700798 0.000000 9.120061
v 5.700798 7.992073 9.120061
v 5.699705 0.000000 -9.120744
v 5.699705 7.992073 -9.120744
v -5.699705 0.399604 9.120744
v -5.700798 0.399604 -9.120061
v 5.699705 0.399604 -9.120744
v 5.700798 0.399604 9.120061
v -5.700793 0.000000 -9.028857
v -5.700793 7.992073 -9.028857
v -5.700793 0.399604 -9.028857
v -5.699710 0.000000 9.029996
v -5.699710 7.992073 9.029996
v -5.699710 0.399604 9.029996
v 5.699710 0.000000 -9.029540
v 5.699710 0.399604 -9.029540
v 5.585700 0.399604 -9.120737
v 5.585700 0.000000 -9.120737
v 5.586793 0.000000 9.120068
v 5.586793 0.399604 9.120068
v 5.700793 0.399604 9.028857
v 5.700793 0.000000 9.028857
v -5.699710 0.000000 9.029540
v -5.699710 0.399604 9.029540
v -5.585705 0.399604 9.029989
v -5.586788 0.399604 -9.028864
v -5.586788 0.000000 -9.028864
v -5.585705 0.000000 9.029989
v -5.699705 5.825860 9.120744
v -5.700798 5.825860 -9.120061
v -5.700793 5.825860 -9.028857
v -5.699710 5.825860 9.029995
v -5.700798 5.526775 -9.120061
v -5.700793 5.526775 -9.028857
v -5.699710 5.526775 9.029995
v -5.699705 5.526775 9.120744
v -5.700125 0.000000 2.117982
v -5.586120 0.399604 2.117975
v -5.586120 0.000000 2.117975
v -5.700125 5.825860 2.117982
v -5.700125 5.526775 2.117982
v -5.700356 0.399604 -1.751772
v -5.586351 0.399604 -1.751779
v -5.700356 0.000000 -1.751772
v -5.586351 0.000000 -1.751779
v -5.700336 0.000000 -1.408883
v -5.586331 0.000000 -1.408890
v -5.700336 0.399604 -1.408882
v -5.700336 5.825860 -1.408882
v -5.700336 5.526775 -1.408882
v -5.700145 0.000000 1.775092
v -5.586140 0.000000 1.775086
v -5.700145 0.399604 1.775092
v -5.700145 5.825860 1.775093
v -5.700145 5.526775 1.775093
v -5.700125 0.399604 2.117982
v -5.700356 5.825860 -1.751772
v -5.700356 5.526775 -1.751772
v -5.586120 5.526775 2.117975
v -5.586120 5.825860 2.117975
v -5.586331 5.825860 -1.408889
v -5.586351 5.825860 -1.751779
v -5.586331 5.526775 -1.408889
v -5.586351 5.526775 -1.751779
v -5.586140 5.825860 1.775086
v -5.586140 5.526775 1.775086
v -5.586140 0.399604 1.775086
v -5.586331 0.399604 -1.408889
vt 0.113251 0.831588
vt 0.113251 0.833254
vt 0.158415 0.833254
vt 0.158415 0.831588
vt 0.000119 0.833254
vt 0.000119 0.999881
vt 0.158415 0.999881
vt 0.107016 0.833254
vt 0.000120 0.000119
vt 0.000119 0.333373
vt 0.158415 0.333373
vt 0.158416 0.000119
vt 0.000119 0.500000
vt 0.107016 0.500000
vt 0.113251 0.500000
vt 0.158415 0.500001
vt 0.367891 1.003058
vt 0.367891 1.001392
vt 0.367891 0.868441
vt 0.367891 0.862177
vt 0.367891 0.804007
vt 0.367891 0.797742
vt 0.367891 0.671462
vt 0.367891 0.669804
vt 0.201264 0.669804
vt 0.201264 1.003058
vt 0.622679 1.003776
vt 0.622679 0.670522
vt 0.456052 0.670522
vt 0.456052 0.672180
vt 0.456052 1.002110
vt 0.456052 1.003776
vt 0.395851 0.042175
vt 0.394185 0.042175
vt 0.394185 0.208807
vt 0.395851 0.208807
vt 0.575864 0.153883
vt 0.577075 0.154497
vt 0.534804 0.021908
vt 0.533157 0.022443
vt 0.113251 0.501658
vt 0.113251 0.627939
vt 0.113251 0.634203
vt 0.113251 0.692374
vt 0.113251 0.698638
vt 0.158415 0.501658
vt 0.385854 0.042175
vt 0.385853 0.208807
vt 0.384188 0.208807
vt 0.384187 0.042175
vt 0.599737 0.351961
vt 0.599736 0.018722
vt 0.591405 0.018722
vt 0.591406 0.351961
vt 0.601403 0.018722
vt 0.601403 0.351961
vt 0.589739 0.351961
vt 0.589739 0.018722
vt 0.397756 0.042175
vt 0.397755 0.208807
vt 0.406087 0.208807
vt 0.406087 0.042175
vt 0.407753 0.042175
vt 0.407753 0.208807
vt 0.396089 0.208807
vt 0.396089 0.042175
vt 0.585477 0.151629
vt 0.543099 0.019253
vt 0.582632 0.294700
vt 0.581276 0.294751
vt 0.588153 0.396931
vt 0.589500 0.396840
vt 0.107016 0.501658
vt 0.107016 0.698638
vt 0.107016 0.831588
vt 0.000119 0.831588
vt 0.000119 0.698638
vt 0.000119 0.501658
vt 0.000119 0.627939
vt 0.107016 0.627939
vt 0.582599 0.289614
vt 0.581246 0.289623
vt 0.574397 0.295082
vt 0.581412 0.397384
vt 0.580071 0.397468
vt 0.573699 0.295871
vt 0.544758 0.018722
vt 0.587126 0.151046
vt 0.587875 0.157790
vt 0.579674 0.160993
vt 0.589500 0.157158
vt 0.574416 0.289655
vt 0.407991 0.042175
vt 0.407991 0.043841
vt 0.466160 0.043841
vt 0.466160 0.042175
vt 0.469920 0.287508
vt 0.471804 0.286982
vt 0.458032 0.212561
vt 0.454941 0.212860
vt 0.479069 0.292020
vt 0.479049 0.293629
vt 0.580375 0.162680
vt 0.466899 0.210718
vt 0.469258 0.211342
vt 0.457035 0.205065
vt 0.455769 0.204138
vt 0.464245 0.203414
vt 0.463499 0.201506
vt 0.479009 0.285952
vt 0.473219 0.292756
vt 0.472544 0.293749
vt 0.480102 0.285039
vt 0.588527 0.159420
vt 0.581251 0.288260
vt 0.574438 0.288236
vn 1.0000 0.0000 -0.0001
vn 0.0001 0.0000 1.0000
vn -1.0000 0.0000 0.0001
vn -0.0001 0.0000 -1.0000
vn 0.0000 1.0000 0.0000
vn 0.0000 -1.0000 -0.0000
usemtl Material.006
s off
f 35/1/1 34/2/1 4/3/1 14/4/1
f 10/5/2 11/6/2 8/7/2 4/3/2 34/2/2 37/8/2
f 11/9/3 12/10/3 6/11/3 8/12/3
f 12/10/4 9/13/4 40/14/4 33/15/4 2/16/4 6/11/4
f 3/17/5 13/18/5 48/19/5 50/20/5 55/21/5 41/22/5 16/23/5 1/24/5 5/25/5 7/26/5
f 8/27/6 6/28/6 2/29/6 17/30/6 14/31/6 4/32/6
f 10/33/5 15/34/5 20/35/5 11/36/5
f 46/37/5 47/38/5 30/39/5 15/40/5
f 36/41/1 44/42/1 58/43/1 53/44/1 61/45/1 35/1/1 14/4/1 17/46/1
f 33/15/1 36/41/1 17/46/1 2/16/1
f 13/47/2 19/48/2 20/35/2 15/34/2
f 7/49/6 19/48/6 13/47/6 3/50/6
f 22/51/3 23/52/3 24/53/3 21/54/3
f 5/55/6 23/52/6 22/51/6 7/56/6
f 11/57/5 21/54/5 24/53/5 12/58/5
f 26/59/4 27/60/4 28/61/4 25/62/4
f 12/63/5 25/62/5 28/61/5 9/64/5
f 1/65/6 27/60/6 26/59/6 5/66/6
f 49/67/1 31/68/1 30/39/1 47/38/1
f 41/69/6 43/70/6 32/71/6 16/72/6
f 40/14/1 39/73/1 36/41/1 33/15/1
f 62/74/1 38/75/1 35/1/1 61/45/1
f 38/75/1 37/8/1 34/2/1 35/1/1
f 15/76/1 10/5/1 37/8/1 38/75/1
f 46/77/1 15/76/1 38/75/1 62/74/1
f 9/13/1 18/78/1 39/73/1 40/14/1
f 18/78/1 60/79/1 45/80/1 39/73/1
f 39/73/1 45/80/1 44/42/1 36/41/1
f 55/81/6 56/82/6 43/70/6 41/69/6
f 32/71/1 43/70/1 42/83/1 29/84/1
f 18/85/5 29/84/5 42/83/5 60/86/5
f 13/87/6 31/68/6 49/67/6 48/88/6
f 51/89/1 49/67/1 47/38/1 72/90/1
f 48/88/6 49/67/6 51/89/6 50/91/6
f 56/82/1 71/92/1 42/83/1 43/70/1
f 50/93/6 51/94/6 56/95/6 55/96/6
f 58/97/5 69/98/5 65/99/5 53/100/5
f 60/86/2 42/83/2 63/101/2 45/102/2
f 52/103/2 72/90/2 67/104/2 54/105/2
f 53/100/5 65/99/5 66/106/5 61/107/5
f 61/107/4 66/106/4 68/108/4 62/109/4
f 72/90/1 47/38/1 68/108/1 67/104/1
f 67/104/1 68/108/1 66/106/1 65/99/1
f 70/110/1 67/104/1 65/99/1 69/98/1
f 42/83/1 71/92/1 70/110/1 63/101/1
f 63/101/1 70/110/1 69/98/1 64/111/1
f 45/102/2 63/101/2 64/111/2 44/112/2
f 54/105/6 67/104/6 70/110/6 59/113/6
f 62/109/4 68/108/4 47/38/4 46/37/4
f 44/112/5 64/111/5 69/98/5 58/97/5
f 52/103/2 50/114/2 51/89/2 72/90/2
f 70/110/4 71/92/4 56/82/4 55/115/4 57/116/4 59/113/4
